<svg width="32" height="32" viewBox="0 0 32 32" fill="none" xmlns="http://www.w3.org/2000/svg">
  <rect width="32" height="32" rx="8" fill="#7000ff" fill-opacity="0.2"/>
  <path d="M10 22V10H14.5C15.8333 10 16.8333 10.3333 17.5 11C18.1667 11.6667 18.5 12.6667 18.5 14C18.5 15 18.25 15.8333 17.75 16.5C17.25 17.1667 16.5 17.5833 15.5 17.75L19 22H16.5L13.25 18H12V22H10ZM12 16H14.5C15.1667 16 15.6667 15.8333 16 15.5C16.3333 15.1667 16.5 14.6667 16.5 14C16.5 13.3333 16.3333 12.8333 16 12.5C15.6667 12.1667 15.1667 12 14.5 12H12V16Z" fill="#7000ff"/>
  <circle cx="24" cy="24" r="4" fill="#e0417f"/>
</svg>
